<?xml version="1.0" encoding="UTF-8" standalone="no"?>
<svg width="24px" height="24px" viewBox="0 0 24 24" version="1.1" xmlns="http://www.w3.org/2000/svg" xmlns:xlink="http://www.w3.org/1999/xlink" xmlns:sketch="http://www.bohemiancoding.com/sketch/ns">
    <!-- Generator: Sketch 3.4.2 (15855) - http://www.bohemiancoding.com/sketch -->
    <title>add-card-icon</title>
    <desc>Created with Sketch.</desc>
    <defs></defs>
    <g id="Deck-Index" stroke="none" stroke-width="1" fill="none" fill-rule="evenodd" sketch:type="MSPage">
        <g id="Deck-Index---iPad" sketch:type="MSArtboardGroup" transform="translate(-984.000000, -16.000000)" fill="#FAFAFA">
            <g id="appnav-&gt;-decks-(active)" sketch:type="MSLayerGroup">
                <g id="add-card-icon" transform="translate(984.000000, 16.000000)" sketch:type="MSShapeGroup">
                    <g id="Group">
                        <path d="M12,0 C5.37253333,0 0,5.37226667 0,12 C0,18.6274667 5.37253333,24 12,24 C18.6277333,24 24,18.6274667 24,12 C24,5.37226667 18.6277333,0 12,0 L12,0 Z M16.6117333,12.8 L12.9829333,12.8 L12.9826667,16.4290667 C12.9829333,16.8709333 12.6245333,17.2293333 12.1826667,17.2290667 C11.9616,17.2290667 11.7616,17.1394667 11.6168,16.9949333 C11.4722667,16.8501333 11.3826667,16.6501333 11.3826667,16.4290667 L11.3826667,12.8 L7.7536,12.7997333 C7.5328,12.8 7.33253333,12.7104 7.188,12.5656 C7.0432,12.4208 6.9536,12.2208 6.95386667,11.9997333 C6.9536,11.5581333 7.312,11.1997333 7.75386667,11.1997333 L11.3829333,11.1997333 L11.3829333,7.57066667 C11.3829333,7.1288 11.7410667,6.77066667 12.1829333,6.77066667 C12.6248,6.77066667 12.9829333,7.12906667 12.9829333,7.57066667 L12.9826667,11.2 L16.612,11.2 C17.0538667,11.2 17.4117333,11.5578667 17.4117333,12 C17.412,12.4418667 17.0536,12.8 16.6117333,12.8 L16.6117333,12.8 Z" id="Shape"></path>
                    </g>
                </g>
            </g>
        </g>
    </g>
</svg>