<?xml version="1.0" encoding="UTF-8" standalone="no"?>
<svg width="36px" height="36px" viewBox="0 0 36 36" version="1.1" xmlns="http://www.w3.org/2000/svg" xmlns:xlink="http://www.w3.org/1999/xlink" xmlns:sketch="http://www.bohemiancoding.com/sketch/ns">
    <!-- Generator: Sketch 3.4.2 (15855) - http://www.bohemiancoding.com/sketch -->
    <title>ic power settings new 48 px</title>
    <desc>Created with Sketch.</desc>
    <defs></defs>
    <g id="Page-1" stroke="none" stroke-width="1" fill="none" fill-rule="evenodd" sketch:type="MSPage">
        <g id="120---iPhone" sketch:type="MSArtboardGroup" transform="translate(-42.000000, -42.000000)" fill="#FAFAFA">
            <g id="ic-power-settings-new-48-px" sketch:type="MSLayerGroup" transform="translate(42.000000, 42.000000)">
                <path d="M20,0 L16,0 L16,20 L20,20 L20,0 L20,0 Z M29.67,4.33 L26.84,7.16 C29.98,9.73 32,13.62 32,18 C32,25.73 25.73,32 18,32 C10.27,32 4,25.73 4,18 C4,13.62 6.02,9.73 9.16,7.16 L6.33,4.33 C2.47,7.63 0,12.52 0,18 C0,27.94 8.06,36 18,36 C27.94,36 36,27.94 36,18 C36,12.52 33.53,7.63 29.67,4.33 L29.67,4.33 Z" id="Shape" sketch:type="MSShapeGroup"></path>
            </g>
        </g>
    </g>
</svg>