<?xml version="1.0" encoding="UTF-8" standalone="no"?>
<svg width="24px" height="21px" viewBox="0 0 24 21" version="1.1" xmlns="http://www.w3.org/2000/svg" xmlns:xlink="http://www.w3.org/1999/xlink" xmlns:sketch="http://www.bohemiancoding.com/sketch/ns">
    <!-- Generator: Sketch 3.4.2 (15855) - http://www.bohemiancoding.com/sketch -->
    <title>hamburger</title>
    <desc>Created with Sketch.</desc>
    <defs></defs>
    <g id="Deck-Index" stroke="none" stroke-width="1" fill="none" fill-rule="evenodd" sketch:type="MSPage">
        <g id="Deck-Index---iPad" sketch:type="MSArtboardGroup" transform="translate(-16.000000, -18.000000)" fill="#FAFAFA">
            <g id="appnav-&gt;-decks-(active)" sketch:type="MSLayerGroup">
                <g id="hamburger" transform="translate(16.000000, 18.000000)" sketch:type="MSShapeGroup">
                    <g id="Group">
                        <g id="Shape">
                            <path d="M2,4.13333333 L22,4.13333333 C23.1048,4.13333333 24,3.23786667 24,2.13333333 C24,1.0288 23.1048,0.133333333 22,0.133333333 L2,0.133333333 C0.895466667,0.133333333 0,1.0288 0,2.13333333 C0,3.23786667 0.895466667,4.13333333 2,4.13333333 L2,4.13333333 Z"></path>
                            <path d="M22,8.13333333 L2,8.13333333 C0.895466667,8.13333333 0,9.0288 0,10.1333333 C0,11.2381333 0.895466667,12.1333333 2,12.1333333 L22,12.1333333 C23.1048,12.1333333 24,11.2381333 24,10.1333333 C24,9.0288 23.1048,8.13333333 22,8.13333333 L22,8.13333333 Z"></path>
                            <path d="M22,16.1333333 L2,16.1333333 C0.895466667,16.1333333 0,17.0285333 0,18.1333333 C0,19.2381333 0.895466667,20.1333333 2,20.1333333 L22,20.1333333 C23.1048,20.1333333 24,19.2381333 24,18.1333333 C24,17.0285333 23.1048,16.1333333 22,16.1333333 L22,16.1333333 Z"></path>
                        </g>
                    </g>
                </g>
            </g>
        </g>
    </g>
</svg>